REM DIRINDEX 1\2\6,1\2\7,1\2\8,1\2\9,1\3\10,1\3\11,1\4\12,1\4\13,1\4\14,1\5\15,1\5\16,1\5\17
REM DIRNAME cjc020,folder01,folder02,folder03,folder04,folder05,folder06,folder07,folder08,folder09,folder10,folder11,folder12,folder13,folder14,folder15,folder16
TITLE ""
FILE "1900_2_sec01_0079_0100.mp3" MP3
  TRACK 01 AUDIO
    TITLE "0:"
    INDEX 01 00:00:00
  TRACK 02 AUDIO
    TITLE "12:cjc020_2242"
    INDEX 01 00:00:17
  TRACK 03 AUDIO
    TITLE "0:"
    INDEX 01 00:01:62
  TRACK 04 AUDIO
    TITLE "13:cjc020_2243"
    INDEX 01 00:02:61
  TRACK 05 AUDIO
    TITLE "0:"
    INDEX 01 00:03:74
  TRACK 06 AUDIO
    TITLE "14:cjc020_2244"
    INDEX 01 00:04:01
  TRACK 07 AUDIO
    TITLE "0:"
    INDEX 01 00:08:44
  TRACK 08 AUDIO
    TITLE "13:cjc020_2245"
    INDEX 01 00:09:24
  TRACK 09 AUDIO
    TITLE "0:"
    INDEX 01 00:10:31
  TRACK 10 AUDIO
    TITLE "14:cjc020_2246"
    INDEX 01 00:10:33
  TRACK 11 AUDIO
    TITLE "0:"
    INDEX 01 00:13:12
  TRACK 12 AUDIO
    TITLE "13:cjc020_2247"
    INDEX 01 00:13:69
  TRACK 13 AUDIO
    TITLE "0:"
    INDEX 01 00:15:03
  TRACK 14 AUDIO
    TITLE "14:cjc020_2248"
    INDEX 01 00:15:07
  TRACK 15 AUDIO
    TITLE "0:"
    INDEX 01 00:16:22
  TRACK 16 AUDIO
    TITLE "13:cjc020_2249"
    INDEX 01 00:17:08
  TRACK 17 AUDIO
    TITLE "0:"
    INDEX 01 00:18:27
  TRACK 18 AUDIO
    TITLE "14:cjc020_2250"
    INDEX 01 00:18:33
  TRACK 19 AUDIO
    TITLE "0:"
    INDEX 01 00:22:38
  TRACK 20 AUDIO
    TITLE "13:cjc020_2251"
    INDEX 01 00:23:18
  TRACK 21 AUDIO
    TITLE "0:"
    INDEX 01 00:24:31
  TRACK 22 AUDIO
    TITLE "14:cjc020_2252"
    INDEX 01 00:24:37
  TRACK 23 AUDIO
    TITLE "0:"
    INDEX 01 00:27:10
  TRACK 24 AUDIO
    TITLE "13:cjc020_2253"
    INDEX 01 00:27:65
  TRACK 25 AUDIO
    TITLE "0:"
    INDEX 01 00:28:66
  TRACK 26 AUDIO
    TITLE "14:cjc020_2254"
    INDEX 01 00:28:68
  TRACK 27 AUDIO
    TITLE "0:"
    INDEX 01 00:31:29
  TRACK 28 AUDIO
    TITLE "13:cjc020_2255"
    INDEX 01 00:32:09
  TRACK 29 AUDIO
    TITLE "0:"
    INDEX 01 00:33:15
  TRACK 30 AUDIO
    TITLE "14:cjc020_2256"
    INDEX 01 00:33:21
  TRACK 31 AUDIO
    TITLE "0:"
    INDEX 01 00:37:34
  TRACK 32 AUDIO
    TITLE "13:cjc020_2257"
    INDEX 01 00:38:14
  TRACK 33 AUDIO
    TITLE "0:"
    INDEX 01 00:39:39
  TRACK 34 AUDIO
    TITLE "14:cjc020_2258"
    INDEX 01 00:39:45
  TRACK 35 AUDIO
    TITLE "0:"
    INDEX 01 00:42:06
  TRACK 36 AUDIO
    TITLE "13:cjc020_2259"
    INDEX 01 00:42:63
  TRACK 37 AUDIO
    TITLE "0:"
    INDEX 01 00:43:66
  TRACK 38 AUDIO
    TITLE "14:cjc020_2260"
    INDEX 01 00:43:72
  TRACK 39 AUDIO
    TITLE "0:"
    INDEX 01 00:47:40
  TRACK 40 AUDIO
    TITLE "13:cjc020_2261"
    INDEX 01 00:48:20
  TRACK 41 AUDIO
    TITLE "0:"
    INDEX 01 00:49:27
  TRACK 42 AUDIO
    TITLE "14:cjc020_2262"
    INDEX 01 00:49:31
  TRACK 43 AUDIO
    TITLE "0:"
    INDEX 01 00:52:32
  TRACK 44 AUDIO
    TITLE "13:cjc020_2263"
    INDEX 01 00:53:09
  TRACK 45 AUDIO
    TITLE "0:"
    INDEX 01 00:54:25
  TRACK 46 AUDIO
    TITLE "14:cjc020_2264"
    INDEX 01 00:54:30
  TRACK 47 AUDIO
    TITLE "0:"
    INDEX 01 00:58:20
  TRACK 48 AUDIO
    TITLE "13:cjc020_2265"
    INDEX 01 00:58:73
  TRACK 49 AUDIO
    TITLE "0:"
    INDEX 01 01:00:13
  TRACK 50 AUDIO
    TITLE "14:cjc020_2266"
    INDEX 01 01:00:19
  TRACK 51 AUDIO
    TITLE "0:"
    INDEX 01 01:02:48
  TRACK 52 AUDIO
    TITLE "13:cjc020_2267"
    INDEX 01 01:03:29
  TRACK 53 AUDIO
    TITLE "0:"
    INDEX 01 01:04:47
  TRACK 54 AUDIO
    TITLE "14:cjc020_2268"
    INDEX 01 01:04:50
  TRACK 55 AUDIO
    TITLE "0:"
    INDEX 01 01:07:15
  TRACK 56 AUDIO
    TITLE "13:cjc020_2269"
    INDEX 01 01:07:66
  TRACK 57 AUDIO
    TITLE "0:"
    INDEX 01 01:08:66
  TRACK 58 AUDIO
    TITLE "14:cjc020_2270"
    INDEX 01 01:08:72
  TRACK 59 AUDIO
    TITLE "0:"
    INDEX 01 01:13:00
  TRACK 60 AUDIO
    TITLE "13:cjc020_2271"
    INDEX 01 01:13:53
  TRACK 61 AUDIO
    TITLE "0:"
    INDEX 01 01:14:57
  TRACK 62 AUDIO
    TITLE "14:cjc020_2272"
    INDEX 01 01:14:63
  TRACK 63 AUDIO
    TITLE "0:"
    INDEX 01 01:17:45
  TRACK 64 AUDIO
    TITLE "13:cjc020_2273"
    INDEX 01 01:18:25
  TRACK 65 AUDIO
    TITLE "0:"
    INDEX 01 01:19:32
  TRACK 66 AUDIO
    TITLE "14:cjc020_2274"
    INDEX 01 01:19:36
  TRACK 67 AUDIO
    TITLE "0:"
    INDEX 01 01:20:63
  TRACK 68 AUDIO
    TITLE "12:cjc020_2275"
    INDEX 01 01:22:39
  TRACK 69 AUDIO
    TITLE "0:"
    INDEX 01 01:24:41
  TRACK 70 AUDIO
    TITLE "13:cjc020_2276"
    INDEX 01 01:25:41
  TRACK 71 AUDIO
    TITLE "0:"
    INDEX 01 01:26:42
  TRACK 72 AUDIO
    TITLE "14:cjc020_2277"
    INDEX 01 01:26:46
  TRACK 73 AUDIO
    TITLE "0:"
    INDEX 01 01:29:13
  TRACK 74 AUDIO
    TITLE "13:cjc020_2278"
    INDEX 01 01:29:66
  TRACK 75 AUDIO
    TITLE "0:"
    INDEX 01 01:30:58
  TRACK 76 AUDIO
    TITLE "14:cjc020_2279"
    INDEX 01 01:30:66
  TRACK 77 AUDIO
    TITLE "0:"
    INDEX 01 01:33:52
  TRACK 78 AUDIO
    TITLE "13:cjc020_2280"
    INDEX 01 01:34:30
  TRACK 79 AUDIO
    TITLE "0:"
    INDEX 01 01:35:37
  TRACK 80 AUDIO
    TITLE "14:cjc020_2281"
    INDEX 01 01:35:41
  TRACK 81 AUDIO
    TITLE "0:"
    INDEX 01 01:38:67
  TRACK 82 AUDIO
    TITLE "13:cjc020_2282"
    INDEX 01 01:39:51
  TRACK 83 AUDIO
    TITLE "0:"
    INDEX 01 01:40:62
  TRACK 84 AUDIO
    TITLE "14:cjc020_2283"
    INDEX 01 01:40:68
  TRACK 85 AUDIO
    TITLE "0:"
    INDEX 01 01:43:66
  TRACK 86 AUDIO
    TITLE "13:cjc020_2284"
    INDEX 01 01:44:48
  TRACK 87 AUDIO
    TITLE "0:"
    INDEX 01 01:46:27
  TRACK 88 AUDIO
    TITLE "14:cjc020_2285"
    INDEX 01 01:46:31
  TRACK 89 AUDIO
    TITLE "0:"
    INDEX 01 01:48:60
  TRACK 90 AUDIO
    TITLE "13:cjc020_2286"
    INDEX 01 01:49:37
  TRACK 91 AUDIO
    TITLE "0:"
    INDEX 01 01:50:35
  TRACK 92 AUDIO
    TITLE "14:cjc020_2287"
    INDEX 01 01:50:43
  TRACK 93 AUDIO
    TITLE "0:"
    INDEX 01 01:53:10
